<svg xmlns="http://www.w3.org/2000/svg" version="1.1" xmlns:xlink="http://www.w3.org/1999/xlink" xmlns:svgjs="http://svgjs.dev/svgjs" viewBox="0 0 1422 800" opacity="0.67"><g stroke-width="1" stroke="hsl(0, 0%, 80%)" fill="none" stroke-linecap="butt"><line x1="0" y1="0" x2="48" y2="48" opacity="1.00"></line><line x1="96" y1="0" x2="48" y2="48" opacity="0.97"></line><line x1="96" y1="0" x2="144" y2="48" opacity="0.94"></line><line x1="192" y1="0" x2="144" y2="48" opacity="0.90"></line><line x1="240" y1="0" x2="192" y2="48" opacity="0.87"></line><line x1="240" y1="0" x2="288" y2="48" opacity="0.84"></line><line x1="288" y1="0" x2="336" y2="48" opacity="0.81"></line><line x1="336" y1="0" x2="384" y2="48" opacity="0.78"></line><line x1="384" y1="0" x2="432" y2="48" opacity="0.74"></line><line x1="480" y1="0" x2="432" y2="48" opacity="0.71"></line><line x1="528" y1="0" x2="480" y2="48" opacity="0.68"></line><line x1="528" y1="0" x2="576" y2="48" opacity="0.65"></line><line x1="576" y1="0" x2="624" y2="48" opacity="0.62"></line><line x1="624" y1="0" x2="672" y2="48" opacity="0.58"></line><line x1="672" y1="0" x2="720" y2="48" opacity="0.55"></line><line x1="720" y1="0" x2="768" y2="48" opacity="0.52"></line><line x1="816" y1="0" x2="768" y2="48" opacity="0.49"></line><line x1="864" y1="0" x2="816" y2="48" opacity="0.45"></line><line x1="912" y1="0" x2="864" y2="48" opacity="0.42"></line><line x1="912" y1="0" x2="960" y2="48" opacity="0.39"></line><line x1="1008" y1="0" x2="960" y2="48" opacity="0.36"></line><line x1="1056" y1="0" x2="1008" y2="48" opacity="0.33"></line><line x1="1056" y1="0" x2="1104" y2="48" opacity="0.29"></line><line x1="1104" y1="0" x2="1152" y2="48" opacity="0.26"></line><line x1="1200" y1="0" x2="1152" y2="48" opacity="0.23"></line><line x1="1200" y1="0" x2="1248" y2="48" opacity="0.20"></line><line x1="1248" y1="0" x2="1296" y2="48" opacity="0.17"></line><line x1="1296" y1="0" x2="1344" y2="48" opacity="0.13"></line><line x1="1344" y1="0" x2="1392" y2="48" opacity="0.10"></line><line x1="1392" y1="0" x2="1440" y2="48" opacity="0.07"></line><line x1="48" y1="48" x2="0" y2="96" opacity="1.00"></line><line x1="96" y1="48" x2="48" y2="96" opacity="0.97"></line><line x1="144" y1="48" x2="96" y2="96" opacity="0.94"></line><line x1="144" y1="48" x2="192" y2="96" opacity="0.90"></line><line x1="192" y1="48" x2="240" y2="96" opacity="0.87"></line><line x1="240" y1="48" x2="288" y2="96" opacity="0.84"></line><line x1="336" y1="48" x2="288" y2="96" opacity="0.81"></line><line x1="384" y1="48" x2="336" y2="96" opacity="0.78"></line><line x1="432" y1="48" x2="384" y2="96" opacity="0.74"></line><line x1="432" y1="48" x2="480" y2="96" opacity="0.71"></line><line x1="528" y1="48" x2="480" y2="96" opacity="0.68"></line><line x1="528" y1="48" x2="576" y2="96" opacity="0.65"></line><line x1="624" y1="48" x2="576" y2="96" opacity="0.62"></line><line x1="624" y1="48" x2="672" y2="96" opacity="0.58"></line><line x1="720" y1="48" x2="672" y2="96" opacity="0.55"></line><line x1="768" y1="48" x2="720" y2="96" opacity="0.52"></line><line x1="816" y1="48" x2="768" y2="96" opacity="0.49"></line><line x1="864" y1="48" x2="816" y2="96" opacity="0.45"></line><line x1="864" y1="48" x2="912" y2="96" opacity="0.42"></line><line x1="960" y1="48" x2="912" y2="96" opacity="0.39"></line><line x1="1008" y1="48" x2="960" y2="96" opacity="0.36"></line><line x1="1008" y1="48" x2="1056" y2="96" opacity="0.33"></line><line x1="1104" y1="48" x2="1056" y2="96" opacity="0.29"></line><line x1="1152" y1="48" x2="1104" y2="96" opacity="0.26"></line><line x1="1152" y1="48" x2="1200" y2="96" opacity="0.23"></line><line x1="1200" y1="48" x2="1248" y2="96" opacity="0.20"></line><line x1="1248" y1="48" x2="1296" y2="96" opacity="0.17"></line><line x1="1296" y1="48" x2="1344" y2="96" opacity="0.13"></line><line x1="1344" y1="48" x2="1392" y2="96" opacity="0.10"></line><line x1="1440" y1="48" x2="1392" y2="96" opacity="0.07"></line><line x1="0" y1="96" x2="48" y2="144" opacity="1.00"></line><line x1="96" y1="96" x2="48" y2="144" opacity="0.97"></line><line x1="96" y1="96" x2="144" y2="144" opacity="0.94"></line><line x1="192" y1="96" x2="144" y2="144" opacity="0.90"></line><line x1="192" y1="96" x2="240" y2="144" opacity="0.87"></line><line x1="240" y1="96" x2="288" y2="144" opacity="0.84"></line><line x1="336" y1="96" x2="288" y2="144" opacity="0.81"></line><line x1="336" y1="96" x2="384" y2="144" opacity="0.78"></line><line x1="384" y1="96" x2="432" y2="144" opacity="0.74"></line><line x1="480" y1="96" x2="432" y2="144" opacity="0.71"></line><line x1="528" y1="96" x2="480" y2="144" opacity="0.68"></line><line x1="576" y1="96" x2="528" y2="144" opacity="0.65"></line><line x1="624" y1="96" x2="576" y2="144" opacity="0.62"></line><line x1="624" y1="96" x2="672" y2="144" opacity="0.58"></line><line x1="672" y1="96" x2="720" y2="144" opacity="0.55"></line><line x1="768" y1="96" x2="720" y2="144" opacity="0.52"></line><line x1="816" y1="96" x2="768" y2="144" opacity="0.49"></line><line x1="864" y1="96" x2="816" y2="144" opacity="0.45"></line><line x1="864" y1="96" x2="912" y2="144" opacity="0.42"></line><line x1="912" y1="96" x2="960" y2="144" opacity="0.39"></line><line x1="960" y1="96" x2="1008" y2="144" opacity="0.36"></line><line x1="1008" y1="96" x2="1056" y2="144" opacity="0.33"></line><line x1="1056" y1="96" x2="1104" y2="144" opacity="0.29"></line><line x1="1104" y1="96" x2="1152" y2="144" opacity="0.26"></line><line x1="1200" y1="96" x2="1152" y2="144" opacity="0.23"></line><line x1="1200" y1="96" x2="1248" y2="144" opacity="0.20"></line><line x1="1296" y1="96" x2="1248" y2="144" opacity="0.17"></line><line x1="1296" y1="96" x2="1344" y2="144" opacity="0.13"></line><line x1="1392" y1="96" x2="1344" y2="144" opacity="0.10"></line><line x1="1392" y1="96" x2="1440" y2="144" opacity="0.07"></line><line x1="48" y1="144" x2="0" y2="192" opacity="1.00"></line><line x1="48" y1="144" x2="96" y2="192" opacity="0.97"></line><line x1="144" y1="144" x2="96" y2="192" opacity="0.94"></line><line x1="144" y1="144" x2="192" y2="192" opacity="0.90"></line><line x1="240" y1="144" x2="192" y2="192" opacity="0.87"></line><line x1="240" y1="144" x2="288" y2="192" opacity="0.84"></line><line x1="336" y1="144" x2="288" y2="192" opacity="0.81"></line><line x1="336" y1="144" x2="384" y2="192" opacity="0.78"></line><line x1="384" y1="144" x2="432" y2="192" opacity="0.74"></line><line x1="480" y1="144" x2="432" y2="192" opacity="0.71"></line><line x1="480" y1="144" x2="528" y2="192" opacity="0.68"></line><line x1="528" y1="144" x2="576" y2="192" opacity="0.65"></line><line x1="624" y1="144" x2="576" y2="192" opacity="0.62"></line><line x1="624" y1="144" x2="672" y2="192" opacity="0.58"></line><line x1="672" y1="144" x2="720" y2="192" opacity="0.55"></line><line x1="720" y1="144" x2="768" y2="192" opacity="0.52"></line><line x1="816" y1="144" x2="768" y2="192" opacity="0.49"></line><line x1="864" y1="144" x2="816" y2="192" opacity="0.45"></line><line x1="912" y1="144" x2="864" y2="192" opacity="0.42"></line><line x1="912" y1="144" x2="960" y2="192" opacity="0.39"></line><line x1="1008" y1="144" x2="960" y2="192" opacity="0.36"></line><line x1="1056" y1="144" x2="1008" y2="192" opacity="0.33"></line><line x1="1104" y1="144" x2="1056" y2="192" opacity="0.29"></line><line x1="1104" y1="144" x2="1152" y2="192" opacity="0.26"></line><line x1="1152" y1="144" x2="1200" y2="192" opacity="0.23"></line><line x1="1248" y1="144" x2="1200" y2="192" opacity="0.20"></line><line x1="1248" y1="144" x2="1296" y2="192" opacity="0.17"></line><line x1="1344" y1="144" x2="1296" y2="192" opacity="0.13"></line><line x1="1344" y1="144" x2="1392" y2="192" opacity="0.10"></line><line x1="1392" y1="144" x2="1440" y2="192" opacity="0.07"></line><line x1="48" y1="192" x2="0" y2="240" opacity="1.00"></line><line x1="48" y1="192" x2="96" y2="240" opacity="0.97"></line><line x1="144" y1="192" x2="96" y2="240" opacity="0.94"></line><line x1="144" y1="192" x2="192" y2="240" opacity="0.90"></line><line x1="192" y1="192" x2="240" y2="240" opacity="0.87"></line><line x1="240" y1="192" x2="288" y2="240" opacity="0.84"></line><line x1="336" y1="192" x2="288" y2="240" opacity="0.81"></line><line x1="336" y1="192" x2="384" y2="240" opacity="0.78"></line><line x1="384" y1="192" x2="432" y2="240" opacity="0.74"></line><line x1="432" y1="192" x2="480" y2="240" opacity="0.71"></line><line x1="480" y1="192" x2="528" y2="240" opacity="0.68"></line><line x1="576" y1="192" x2="528" y2="240" opacity="0.65"></line><line x1="624" y1="192" x2="576" y2="240" opacity="0.62"></line><line x1="672" y1="192" x2="624" y2="240" opacity="0.58"></line><line x1="720" y1="192" x2="672" y2="240" opacity="0.55"></line><line x1="720" y1="192" x2="768" y2="240" opacity="0.52"></line><line x1="768" y1="192" x2="816" y2="240" opacity="0.49"></line><line x1="864" y1="192" x2="816" y2="240" opacity="0.45"></line><line x1="912" y1="192" x2="864" y2="240" opacity="0.42"></line><line x1="960" y1="192" x2="912" y2="240" opacity="0.39"></line><line x1="960" y1="192" x2="1008" y2="240" opacity="0.36"></line><line x1="1008" y1="192" x2="1056" y2="240" opacity="0.33"></line><line x1="1104" y1="192" x2="1056" y2="240" opacity="0.29"></line><line x1="1104" y1="192" x2="1152" y2="240" opacity="0.26"></line><line x1="1152" y1="192" x2="1200" y2="240" opacity="0.23"></line><line x1="1200" y1="192" x2="1248" y2="240" opacity="0.20"></line><line x1="1296" y1="192" x2="1248" y2="240" opacity="0.17"></line><line x1="1296" y1="192" x2="1344" y2="240" opacity="0.13"></line><line x1="1392" y1="192" x2="1344" y2="240" opacity="0.10"></line><line x1="1392" y1="192" x2="1440" y2="240" opacity="0.07"></line><line x1="0" y1="240" x2="48" y2="288" opacity="1.00"></line><line x1="96" y1="240" x2="48" y2="288" opacity="0.97"></line><line x1="96" y1="240" x2="144" y2="288" opacity="0.94"></line><line x1="144" y1="240" x2="192" y2="288" opacity="0.90"></line><line x1="192" y1="240" x2="240" y2="288" opacity="0.87"></line><line x1="240" y1="240" x2="288" y2="288" opacity="0.84"></line><line x1="336" y1="240" x2="288" y2="288" opacity="0.81"></line><line x1="384" y1="240" x2="336" y2="288" opacity="0.78"></line><line x1="384" y1="240" x2="432" y2="288" opacity="0.74"></line><line x1="432" y1="240" x2="480" y2="288" opacity="0.71"></line><line x1="480" y1="240" x2="528" y2="288" opacity="0.68"></line><line x1="528" y1="240" x2="576" y2="288" opacity="0.65"></line><line x1="576" y1="240" x2="624" y2="288" opacity="0.62"></line><line x1="624" y1="240" x2="672" y2="288" opacity="0.58"></line><line x1="720" y1="240" x2="672" y2="288" opacity="0.55"></line><line x1="768" y1="240" x2="720" y2="288" opacity="0.52"></line><line x1="816" y1="240" x2="768" y2="288" opacity="0.49"></line><line x1="816" y1="240" x2="864" y2="288" opacity="0.45"></line><line x1="864" y1="240" x2="912" y2="288" opacity="0.42"></line><line x1="912" y1="240" x2="960" y2="288" opacity="0.39"></line><line x1="960" y1="240" x2="1008" y2="288" opacity="0.36"></line><line x1="1008" y1="240" x2="1056" y2="288" opacity="0.33"></line><line x1="1056" y1="240" x2="1104" y2="288" opacity="0.29"></line><line x1="1152" y1="240" x2="1104" y2="288" opacity="0.26"></line><line x1="1200" y1="240" x2="1152" y2="288" opacity="0.23"></line><line x1="1248" y1="240" x2="1200" y2="288" opacity="0.20"></line><line x1="1296" y1="240" x2="1248" y2="288" opacity="0.17"></line><line x1="1296" y1="240" x2="1344" y2="288" opacity="0.13"></line><line x1="1392" y1="240" x2="1344" y2="288" opacity="0.10"></line><line x1="1392" y1="240" x2="1440" y2="288" opacity="0.07"></line><line x1="0" y1="288" x2="48" y2="336" opacity="1.00"></line><line x1="48" y1="288" x2="96" y2="336" opacity="0.97"></line><line x1="96" y1="288" x2="144" y2="336" opacity="0.94"></line><line x1="144" y1="288" x2="192" y2="336" opacity="0.90"></line><line x1="240" y1="288" x2="192" y2="336" opacity="0.87"></line><line x1="240" y1="288" x2="288" y2="336" opacity="0.84"></line><line x1="288" y1="288" x2="336" y2="336" opacity="0.81"></line><line x1="384" y1="288" x2="336" y2="336" opacity="0.78"></line><line x1="384" y1="288" x2="432" y2="336" opacity="0.74"></line><line x1="480" y1="288" x2="432" y2="336" opacity="0.71"></line><line x1="480" y1="288" x2="528" y2="336" opacity="0.68"></line><line x1="576" y1="288" x2="528" y2="336" opacity="0.65"></line><line x1="624" y1="288" x2="576" y2="336" opacity="0.62"></line><line x1="624" y1="288" x2="672" y2="336" opacity="0.58"></line><line x1="720" y1="288" x2="672" y2="336" opacity="0.55"></line><line x1="768" y1="288" x2="720" y2="336" opacity="0.52"></line><line x1="816" y1="288" x2="768" y2="336" opacity="0.49"></line><line x1="816" y1="288" x2="864" y2="336" opacity="0.45"></line><line x1="912" y1="288" x2="864" y2="336" opacity="0.42"></line><line x1="960" y1="288" x2="912" y2="336" opacity="0.39"></line><line x1="960" y1="288" x2="1008" y2="336" opacity="0.36"></line><line x1="1008" y1="288" x2="1056" y2="336" opacity="0.33"></line><line x1="1056" y1="288" x2="1104" y2="336" opacity="0.29"></line><line x1="1104" y1="288" x2="1152" y2="336" opacity="0.26"></line><line x1="1200" y1="288" x2="1152" y2="336" opacity="0.23"></line><line x1="1200" y1="288" x2="1248" y2="336" opacity="0.20"></line><line x1="1248" y1="288" x2="1296" y2="336" opacity="0.17"></line><line x1="1344" y1="288" x2="1296" y2="336" opacity="0.13"></line><line x1="1344" y1="288" x2="1392" y2="336" opacity="0.10"></line><line x1="1392" y1="288" x2="1440" y2="336" opacity="0.07"></line><line x1="48" y1="336" x2="0" y2="384" opacity="1.00"></line><line x1="96" y1="336" x2="48" y2="384" opacity="0.97"></line><line x1="96" y1="336" x2="144" y2="384" opacity="0.94"></line><line x1="192" y1="336" x2="144" y2="384" opacity="0.90"></line><line x1="192" y1="336" x2="240" y2="384" opacity="0.87"></line><line x1="240" y1="336" x2="288" y2="384" opacity="0.84"></line><line x1="336" y1="336" x2="288" y2="384" opacity="0.81"></line><line x1="384" y1="336" x2="336" y2="384" opacity="0.78"></line><line x1="432" y1="336" x2="384" y2="384" opacity="0.74"></line><line x1="480" y1="336" x2="432" y2="384" opacity="0.71"></line><line x1="528" y1="336" x2="480" y2="384" opacity="0.68"></line><line x1="528" y1="336" x2="576" y2="384" opacity="0.65"></line><line x1="576" y1="336" x2="624" y2="384" opacity="0.62"></line><line x1="624" y1="336" x2="672" y2="384" opacity="0.58"></line><line x1="720" y1="336" x2="672" y2="384" opacity="0.55"></line><line x1="720" y1="336" x2="768" y2="384" opacity="0.52"></line><line x1="768" y1="336" x2="816" y2="384" opacity="0.49"></line><line x1="816" y1="336" x2="864" y2="384" opacity="0.45"></line><line x1="912" y1="336" x2="864" y2="384" opacity="0.42"></line><line x1="912" y1="336" x2="960" y2="384" opacity="0.39"></line><line x1="960" y1="336" x2="1008" y2="384" opacity="0.36"></line><line x1="1008" y1="336" x2="1056" y2="384" opacity="0.33"></line><line x1="1056" y1="336" x2="1104" y2="384" opacity="0.29"></line><line x1="1152" y1="336" x2="1104" y2="384" opacity="0.26"></line><line x1="1200" y1="336" x2="1152" y2="384" opacity="0.23"></line><line x1="1200" y1="336" x2="1248" y2="384" opacity="0.20"></line><line x1="1248" y1="336" x2="1296" y2="384" opacity="0.17"></line><line x1="1296" y1="336" x2="1344" y2="384" opacity="0.13"></line><line x1="1344" y1="336" x2="1392" y2="384" opacity="0.10"></line><line x1="1392" y1="336" x2="1440" y2="384" opacity="0.07"></line><line x1="48" y1="384" x2="0" y2="432" opacity="1.00"></line><line x1="96" y1="384" x2="48" y2="432" opacity="0.97"></line><line x1="144" y1="384" x2="96" y2="432" opacity="0.94"></line><line x1="192" y1="384" x2="144" y2="432" opacity="0.90"></line><line x1="192" y1="384" x2="240" y2="432" opacity="0.87"></line><line x1="240" y1="384" x2="288" y2="432" opacity="0.84"></line><line x1="336" y1="384" x2="288" y2="432" opacity="0.81"></line><line x1="336" y1="384" x2="384" y2="432" opacity="0.78"></line><line x1="384" y1="384" x2="432" y2="432" opacity="0.74"></line><line x1="480" y1="384" x2="432" y2="432" opacity="0.71"></line><line x1="480" y1="384" x2="528" y2="432" opacity="0.68"></line><line x1="576" y1="384" x2="528" y2="432" opacity="0.65"></line><line x1="624" y1="384" x2="576" y2="432" opacity="0.62"></line><line x1="672" y1="384" x2="624" y2="432" opacity="0.58"></line><line x1="672" y1="384" x2="720" y2="432" opacity="0.55"></line><line x1="720" y1="384" x2="768" y2="432" opacity="0.52"></line><line x1="768" y1="384" x2="816" y2="432" opacity="0.49"></line><line x1="864" y1="384" x2="816" y2="432" opacity="0.45"></line><line x1="864" y1="384" x2="912" y2="432" opacity="0.42"></line><line x1="960" y1="384" x2="912" y2="432" opacity="0.39"></line><line x1="960" y1="384" x2="1008" y2="432" opacity="0.36"></line><line x1="1008" y1="384" x2="1056" y2="432" opacity="0.33"></line><line x1="1056" y1="384" x2="1104" y2="432" opacity="0.29"></line><line x1="1152" y1="384" x2="1104" y2="432" opacity="0.26"></line><line x1="1152" y1="384" x2="1200" y2="432" opacity="0.23"></line><line x1="1200" y1="384" x2="1248" y2="432" opacity="0.20"></line><line x1="1296" y1="384" x2="1248" y2="432" opacity="0.17"></line><line x1="1296" y1="384" x2="1344" y2="432" opacity="0.13"></line><line x1="1392" y1="384" x2="1344" y2="432" opacity="0.10"></line><line x1="1392" y1="384" x2="1440" y2="432" opacity="0.07"></line><line x1="0" y1="432" x2="48" y2="480" opacity="1.00"></line><line x1="48" y1="432" x2="96" y2="480" opacity="0.97"></line><line x1="144" y1="432" x2="96" y2="480" opacity="0.94"></line><line x1="144" y1="432" x2="192" y2="480" opacity="0.90"></line><line x1="240" y1="432" x2="192" y2="480" opacity="0.87"></line><line x1="288" y1="432" x2="240" y2="480" opacity="0.84"></line><line x1="336" y1="432" x2="288" y2="480" opacity="0.81"></line><line x1="336" y1="432" x2="384" y2="480" opacity="0.78"></line><line x1="432" y1="432" x2="384" y2="480" opacity="0.74"></line><line x1="432" y1="432" x2="480" y2="480" opacity="0.71"></line><line x1="528" y1="432" x2="480" y2="480" opacity="0.68"></line><line x1="528" y1="432" x2="576" y2="480" opacity="0.65"></line><line x1="576" y1="432" x2="624" y2="480" opacity="0.62"></line><line x1="624" y1="432" x2="672" y2="480" opacity="0.58"></line><line x1="720" y1="432" x2="672" y2="480" opacity="0.55"></line><line x1="720" y1="432" x2="768" y2="480" opacity="0.52"></line><line x1="768" y1="432" x2="816" y2="480" opacity="0.49"></line><line x1="816" y1="432" x2="864" y2="480" opacity="0.45"></line><line x1="912" y1="432" x2="864" y2="480" opacity="0.42"></line><line x1="960" y1="432" x2="912" y2="480" opacity="0.39"></line><line x1="960" y1="432" x2="1008" y2="480" opacity="0.36"></line><line x1="1056" y1="432" x2="1008" y2="480" opacity="0.33"></line><line x1="1056" y1="432" x2="1104" y2="480" opacity="0.29"></line><line x1="1152" y1="432" x2="1104" y2="480" opacity="0.26"></line><line x1="1152" y1="432" x2="1200" y2="480" opacity="0.23"></line><line x1="1200" y1="432" x2="1248" y2="480" opacity="0.20"></line><line x1="1248" y1="432" x2="1296" y2="480" opacity="0.17"></line><line x1="1344" y1="432" x2="1296" y2="480" opacity="0.13"></line><line x1="1392" y1="432" x2="1344" y2="480" opacity="0.10"></line><line x1="1440" y1="432" x2="1392" y2="480" opacity="0.07"></line><line x1="0" y1="480" x2="48" y2="528" opacity="1.00"></line><line x1="48" y1="480" x2="96" y2="528" opacity="0.97"></line><line x1="96" y1="480" x2="144" y2="528" opacity="0.94"></line><line x1="144" y1="480" x2="192" y2="528" opacity="0.90"></line><line x1="192" y1="480" x2="240" y2="528" opacity="0.87"></line><line x1="240" y1="480" x2="288" y2="528" opacity="0.84"></line><line x1="336" y1="480" x2="288" y2="528" opacity="0.81"></line><line x1="384" y1="480" x2="336" y2="528" opacity="0.78"></line><line x1="432" y1="480" x2="384" y2="528" opacity="0.74"></line><line x1="432" y1="480" x2="480" y2="528" opacity="0.71"></line><line x1="528" y1="480" x2="480" y2="528" opacity="0.68"></line><line x1="528" y1="480" x2="576" y2="528" opacity="0.65"></line><line x1="576" y1="480" x2="624" y2="528" opacity="0.62"></line><line x1="672" y1="480" x2="624" y2="528" opacity="0.58"></line><line x1="672" y1="480" x2="720" y2="528" opacity="0.55"></line><line x1="720" y1="480" x2="768" y2="528" opacity="0.52"></line><line x1="768" y1="480" x2="816" y2="528" opacity="0.49"></line><line x1="864" y1="480" x2="816" y2="528" opacity="0.45"></line><line x1="864" y1="480" x2="912" y2="528" opacity="0.42"></line><line x1="912" y1="480" x2="960" y2="528" opacity="0.39"></line><line x1="960" y1="480" x2="1008" y2="528" opacity="0.36"></line><line x1="1008" y1="480" x2="1056" y2="528" opacity="0.33"></line><line x1="1056" y1="480" x2="1104" y2="528" opacity="0.29"></line><line x1="1104" y1="480" x2="1152" y2="528" opacity="0.26"></line><line x1="1200" y1="480" x2="1152" y2="528" opacity="0.23"></line><line x1="1248" y1="480" x2="1200" y2="528" opacity="0.20"></line><line x1="1248" y1="480" x2="1296" y2="528" opacity="0.17"></line><line x1="1296" y1="480" x2="1344" y2="528" opacity="0.13"></line><line x1="1344" y1="480" x2="1392" y2="528" opacity="0.10"></line><line x1="1392" y1="480" x2="1440" y2="528" opacity="0.07"></line><line x1="0" y1="528" x2="48" y2="576" opacity="1.00"></line><line x1="96" y1="528" x2="48" y2="576" opacity="0.97"></line><line x1="144" y1="528" x2="96" y2="576" opacity="0.94"></line><line x1="192" y1="528" x2="144" y2="576" opacity="0.90"></line><line x1="192" y1="528" x2="240" y2="576" opacity="0.87"></line><line x1="240" y1="528" x2="288" y2="576" opacity="0.84"></line><line x1="288" y1="528" x2="336" y2="576" opacity="0.81"></line><line x1="384" y1="528" x2="336" y2="576" opacity="0.78"></line><line x1="384" y1="528" x2="432" y2="576" opacity="0.74"></line><line x1="480" y1="528" x2="432" y2="576" opacity="0.71"></line><line x1="480" y1="528" x2="528" y2="576" opacity="0.68"></line><line x1="528" y1="528" x2="576" y2="576" opacity="0.65"></line><line x1="576" y1="528" x2="624" y2="576" opacity="0.62"></line><line x1="624" y1="528" x2="672" y2="576" opacity="0.58"></line><line x1="672" y1="528" x2="720" y2="576" opacity="0.55"></line><line x1="720" y1="528" x2="768" y2="576" opacity="0.52"></line><line x1="768" y1="528" x2="816" y2="576" opacity="0.49"></line><line x1="816" y1="528" x2="864" y2="576" opacity="0.45"></line><line x1="864" y1="528" x2="912" y2="576" opacity="0.42"></line><line x1="912" y1="528" x2="960" y2="576" opacity="0.39"></line><line x1="1008" y1="528" x2="960" y2="576" opacity="0.36"></line><line x1="1056" y1="528" x2="1008" y2="576" opacity="0.33"></line><line x1="1056" y1="528" x2="1104" y2="576" opacity="0.29"></line><line x1="1104" y1="528" x2="1152" y2="576" opacity="0.26"></line><line x1="1200" y1="528" x2="1152" y2="576" opacity="0.23"></line><line x1="1248" y1="528" x2="1200" y2="576" opacity="0.20"></line><line x1="1296" y1="528" x2="1248" y2="576" opacity="0.17"></line><line x1="1296" y1="528" x2="1344" y2="576" opacity="0.13"></line><line x1="1344" y1="528" x2="1392" y2="576" opacity="0.10"></line><line x1="1440" y1="528" x2="1392" y2="576" opacity="0.07"></line><line x1="0" y1="576" x2="48" y2="624" opacity="1.00"></line><line x1="48" y1="576" x2="96" y2="624" opacity="0.97"></line><line x1="96" y1="576" x2="144" y2="624" opacity="0.94"></line><line x1="144" y1="576" x2="192" y2="624" opacity="0.90"></line><line x1="240" y1="576" x2="192" y2="624" opacity="0.87"></line><line x1="288" y1="576" x2="240" y2="624" opacity="0.84"></line><line x1="288" y1="576" x2="336" y2="624" opacity="0.81"></line><line x1="336" y1="576" x2="384" y2="624" opacity="0.78"></line><line x1="432" y1="576" x2="384" y2="624" opacity="0.74"></line><line x1="480" y1="576" x2="432" y2="624" opacity="0.71"></line><line x1="528" y1="576" x2="480" y2="624" opacity="0.68"></line><line x1="576" y1="576" x2="528" y2="624" opacity="0.65"></line><line x1="576" y1="576" x2="624" y2="624" opacity="0.62"></line><line x1="672" y1="576" x2="624" y2="624" opacity="0.58"></line><line x1="672" y1="576" x2="720" y2="624" opacity="0.55"></line><line x1="768" y1="576" x2="720" y2="624" opacity="0.52"></line><line x1="768" y1="576" x2="816" y2="624" opacity="0.49"></line><line x1="816" y1="576" x2="864" y2="624" opacity="0.45"></line><line x1="912" y1="576" x2="864" y2="624" opacity="0.42"></line><line x1="912" y1="576" x2="960" y2="624" opacity="0.39"></line><line x1="960" y1="576" x2="1008" y2="624" opacity="0.36"></line><line x1="1008" y1="576" x2="1056" y2="624" opacity="0.33"></line><line x1="1056" y1="576" x2="1104" y2="624" opacity="0.29"></line><line x1="1104" y1="576" x2="1152" y2="624" opacity="0.26"></line><line x1="1152" y1="576" x2="1200" y2="624" opacity="0.23"></line><line x1="1248" y1="576" x2="1200" y2="624" opacity="0.20"></line><line x1="1248" y1="576" x2="1296" y2="624" opacity="0.17"></line><line x1="1296" y1="576" x2="1344" y2="624" opacity="0.13"></line><line x1="1392" y1="576" x2="1344" y2="624" opacity="0.10"></line><line x1="1392" y1="576" x2="1440" y2="624" opacity="0.07"></line><line x1="0" y1="624" x2="48" y2="672" opacity="1.00"></line><line x1="96" y1="624" x2="48" y2="672" opacity="0.97"></line><line x1="96" y1="624" x2="144" y2="672" opacity="0.94"></line><line x1="144" y1="624" x2="192" y2="672" opacity="0.90"></line><line x1="240" y1="624" x2="192" y2="672" opacity="0.87"></line><line x1="288" y1="624" x2="240" y2="672" opacity="0.84"></line><line x1="288" y1="624" x2="336" y2="672" opacity="0.81"></line><line x1="336" y1="624" x2="384" y2="672" opacity="0.78"></line><line x1="432" y1="624" x2="384" y2="672" opacity="0.74"></line><line x1="432" y1="624" x2="480" y2="672" opacity="0.71"></line><line x1="528" y1="624" x2="480" y2="672" opacity="0.68"></line><line x1="528" y1="624" x2="576" y2="672" opacity="0.65"></line><line x1="624" y1="624" x2="576" y2="672" opacity="0.62"></line><line x1="672" y1="624" x2="624" y2="672" opacity="0.58"></line><line x1="720" y1="624" x2="672" y2="672" opacity="0.55"></line><line x1="768" y1="624" x2="720" y2="672" opacity="0.52"></line><line x1="816" y1="624" x2="768" y2="672" opacity="0.49"></line><line x1="864" y1="624" x2="816" y2="672" opacity="0.45"></line><line x1="864" y1="624" x2="912" y2="672" opacity="0.42"></line><line x1="912" y1="624" x2="960" y2="672" opacity="0.39"></line><line x1="960" y1="624" x2="1008" y2="672" opacity="0.36"></line><line x1="1008" y1="624" x2="1056" y2="672" opacity="0.33"></line><line x1="1104" y1="624" x2="1056" y2="672" opacity="0.29"></line><line x1="1104" y1="624" x2="1152" y2="672" opacity="0.26"></line><line x1="1200" y1="624" x2="1152" y2="672" opacity="0.23"></line><line x1="1200" y1="624" x2="1248" y2="672" opacity="0.20"></line><line x1="1248" y1="624" x2="1296" y2="672" opacity="0.17"></line><line x1="1344" y1="624" x2="1296" y2="672" opacity="0.13"></line><line x1="1344" y1="624" x2="1392" y2="672" opacity="0.10"></line><line x1="1392" y1="624" x2="1440" y2="672" opacity="0.07"></line><line x1="0" y1="672" x2="48" y2="720" opacity="1.00"></line><line x1="48" y1="672" x2="96" y2="720" opacity="0.97"></line><line x1="96" y1="672" x2="144" y2="720" opacity="0.94"></line><line x1="144" y1="672" x2="192" y2="720" opacity="0.90"></line><line x1="192" y1="672" x2="240" y2="720" opacity="0.87"></line><line x1="240" y1="672" x2="288" y2="720" opacity="0.84"></line><line x1="336" y1="672" x2="288" y2="720" opacity="0.81"></line><line x1="336" y1="672" x2="384" y2="720" opacity="0.78"></line><line x1="384" y1="672" x2="432" y2="720" opacity="0.74"></line><line x1="480" y1="672" x2="432" y2="720" opacity="0.71"></line><line x1="528" y1="672" x2="480" y2="720" opacity="0.68"></line><line x1="576" y1="672" x2="528" y2="720" opacity="0.65"></line><line x1="624" y1="672" x2="576" y2="720" opacity="0.62"></line><line x1="624" y1="672" x2="672" y2="720" opacity="0.58"></line><line x1="720" y1="672" x2="672" y2="720" opacity="0.55"></line><line x1="768" y1="672" x2="720" y2="720" opacity="0.52"></line><line x1="816" y1="672" x2="768" y2="720" opacity="0.49"></line><line x1="816" y1="672" x2="864" y2="720" opacity="0.45"></line><line x1="864" y1="672" x2="912" y2="720" opacity="0.42"></line><line x1="960" y1="672" x2="912" y2="720" opacity="0.39"></line><line x1="960" y1="672" x2="1008" y2="720" opacity="0.36"></line><line x1="1056" y1="672" x2="1008" y2="720" opacity="0.33"></line><line x1="1104" y1="672" x2="1056" y2="720" opacity="0.29"></line><line x1="1104" y1="672" x2="1152" y2="720" opacity="0.26"></line><line x1="1152" y1="672" x2="1200" y2="720" opacity="0.23"></line><line x1="1200" y1="672" x2="1248" y2="720" opacity="0.20"></line><line x1="1296" y1="672" x2="1248" y2="720" opacity="0.17"></line><line x1="1344" y1="672" x2="1296" y2="720" opacity="0.13"></line><line x1="1344" y1="672" x2="1392" y2="720" opacity="0.10"></line><line x1="1440" y1="672" x2="1392" y2="720" opacity="0.07"></line><line x1="0" y1="720" x2="48" y2="768" opacity="1.00"></line><line x1="96" y1="720" x2="48" y2="768" opacity="0.97"></line><line x1="96" y1="720" x2="144" y2="768" opacity="0.94"></line><line x1="144" y1="720" x2="192" y2="768" opacity="0.90"></line><line x1="192" y1="720" x2="240" y2="768" opacity="0.87"></line><line x1="240" y1="720" x2="288" y2="768" opacity="0.84"></line><line x1="288" y1="720" x2="336" y2="768" opacity="0.81"></line><line x1="336" y1="720" x2="384" y2="768" opacity="0.78"></line><line x1="432" y1="720" x2="384" y2="768" opacity="0.74"></line><line x1="480" y1="720" x2="432" y2="768" opacity="0.71"></line><line x1="480" y1="720" x2="528" y2="768" opacity="0.68"></line><line x1="528" y1="720" x2="576" y2="768" opacity="0.65"></line><line x1="624" y1="720" x2="576" y2="768" opacity="0.62"></line><line x1="624" y1="720" x2="672" y2="768" opacity="0.58"></line><line x1="672" y1="720" x2="720" y2="768" opacity="0.55"></line><line x1="768" y1="720" x2="720" y2="768" opacity="0.52"></line><line x1="816" y1="720" x2="768" y2="768" opacity="0.49"></line><line x1="864" y1="720" x2="816" y2="768" opacity="0.45"></line><line x1="864" y1="720" x2="912" y2="768" opacity="0.42"></line><line x1="912" y1="720" x2="960" y2="768" opacity="0.39"></line><line x1="960" y1="720" x2="1008" y2="768" opacity="0.36"></line><line x1="1008" y1="720" x2="1056" y2="768" opacity="0.33"></line><line x1="1104" y1="720" x2="1056" y2="768" opacity="0.29"></line><line x1="1152" y1="720" x2="1104" y2="768" opacity="0.26"></line><line x1="1152" y1="720" x2="1200" y2="768" opacity="0.23"></line><line x1="1248" y1="720" x2="1200" y2="768" opacity="0.20"></line><line x1="1296" y1="720" x2="1248" y2="768" opacity="0.17"></line><line x1="1344" y1="720" x2="1296" y2="768" opacity="0.13"></line><line x1="1392" y1="720" x2="1344" y2="768" opacity="0.10"></line><line x1="1440" y1="720" x2="1392" y2="768" opacity="0.07"></line><line x1="0" y1="768" x2="48" y2="816" opacity="1.00"></line><line x1="48" y1="768" x2="96" y2="816" opacity="0.97"></line><line x1="144" y1="768" x2="96" y2="816" opacity="0.94"></line><line x1="192" y1="768" x2="144" y2="816" opacity="0.90"></line><line x1="192" y1="768" x2="240" y2="816" opacity="0.87"></line><line x1="240" y1="768" x2="288" y2="816" opacity="0.84"></line><line x1="288" y1="768" x2="336" y2="816" opacity="0.81"></line><line x1="336" y1="768" x2="384" y2="816" opacity="0.78"></line><line x1="432" y1="768" x2="384" y2="816" opacity="0.74"></line><line x1="432" y1="768" x2="480" y2="816" opacity="0.71"></line><line x1="528" y1="768" x2="480" y2="816" opacity="0.68"></line><line x1="576" y1="768" x2="528" y2="816" opacity="0.65"></line><line x1="576" y1="768" x2="624" y2="816" opacity="0.62"></line><line x1="672" y1="768" x2="624" y2="816" opacity="0.58"></line><line x1="672" y1="768" x2="720" y2="816" opacity="0.55"></line><line x1="720" y1="768" x2="768" y2="816" opacity="0.52"></line><line x1="816" y1="768" x2="768" y2="816" opacity="0.49"></line><line x1="816" y1="768" x2="864" y2="816" opacity="0.45"></line><line x1="864" y1="768" x2="912" y2="816" opacity="0.42"></line><line x1="960" y1="768" x2="912" y2="816" opacity="0.39"></line><line x1="960" y1="768" x2="1008" y2="816" opacity="0.36"></line><line x1="1008" y1="768" x2="1056" y2="816" opacity="0.33"></line><line x1="1056" y1="768" x2="1104" y2="816" opacity="0.29"></line><line x1="1152" y1="768" x2="1104" y2="816" opacity="0.26"></line><line x1="1152" y1="768" x2="1200" y2="816" opacity="0.23"></line><line x1="1200" y1="768" x2="1248" y2="816" opacity="0.20"></line><line x1="1248" y1="768" x2="1296" y2="816" opacity="0.17"></line><line x1="1296" y1="768" x2="1344" y2="816" opacity="0.13"></line><line x1="1344" y1="768" x2="1392" y2="816" opacity="0.10"></line><line x1="1392" y1="768" x2="1440" y2="816" opacity="0.07"></line></g></svg>